#N canvas 35 54 1346 784 12;
#X obj 478 59 notein;
#X obj 185 454 s padNumber;
#X obj 273 454 s padVelocity;
#X obj 415 376 s bhNumber;
#X obj 428 165 moses 64;
#X obj 481 195 moses 72;
#X obj 667 377 s bvNumber;
#X obj 195 328 spigot;
#X obj 497 133 s Velocity;
#X obj 305 283 r Velocity;
#X obj 415 323 spigot;
#X obj 453 293 r Velocity;
#X obj 667 328 spigot;
#X obj 707 270 r Velocity;
#X obj 881 332 spigot;
#X obj 974 293 r Velocity;
#X obj 828 253 moses 98;
#X obj 690 223 moses 90;
#X obj 300 425 spigot;
#X text 29 53 Pads : 0 - 63 Ligne bas : 64 - 71 Ligne verticale : 82 - 89 Shift 98;
#X text 198 494 Filter Notes < 64;
#X text 431 418 Filter Notes < 72;
#X text 667 416 Filter Notes < 90;
#X obj 519 324 spigot;
#X obj 521 376 s bhVelocity;
#X obj 753 326 spigot;
#X obj 755 378 s bvVelocity;
#X obj 994 339 spigot;
#X text 914 411 Filter Notes > 97;
#X obj 913 376 s bShiftNumber;
#X obj 1041 377 s bShiftVelocity;
#X floatatom 303 205 5 0 0 0 - - - 0;
#X floatatom 95 430 5 0 0 0 - - - 0;
#X obj 598 109 bng 19 250 50 0 empty empty empty 0 -10 0 12 #fcfcfc #000000 #000000;
#X msg 265 364 0;
#X obj 266 339 pipe 1;
#X floatatom 258 392 5 0 0 0 - - - 0;
#X obj 842 121 makenote;
#X text 279 588 Envoyer la vélocité ? Est-ce nécessaire ? Chaque note envoi un bang !;
#X connect 0 0 4 0;
#X connect 0 0 31 0;
#X connect 0 1 8 0;
#X connect 0 1 33 0;
#X connect 4 0 7 0;
#X connect 4 1 5 0;
#X connect 5 0 10 0;
#X connect 5 0 23 1;
#X connect 5 1 17 0;
#X connect 7 0 1 0;
#X connect 7 0 32 0;
#X connect 7 0 36 0;
#X connect 9 0 7 1;
#X connect 9 0 35 0;
#X connect 9 0 18 0;
#X connect 10 0 3 0;
#X connect 11 0 10 1;
#X connect 11 0 23 0;
#X connect 12 0 6 0;
#X connect 13 0 12 1;
#X connect 13 0 25 0;
#X connect 14 0 29 0;
#X connect 15 0 14 1;
#X connect 15 0 27 0;
#X connect 16 1 14 0;
#X connect 16 1 27 1;
#X connect 17 0 12 0;
#X connect 17 0 25 1;
#X connect 17 1 16 0;
#X connect 18 0 2 0;
#X connect 23 0 24 0;
#X connect 25 0 26 0;
#X connect 27 0 30 0;
#X connect 34 0 36 0;
#X connect 35 0 34 0;
#X connect 36 0 18 1;
