#N canvas 18 186 1346 514 12;
#X obj 478 59 notein;
#X floatatom 370 102 5 0 0 0 - - - 0;
#X floatatom 585 118 5 0 0 0 - - - 0;
#X floatatom 624 47 5 0 0 0 - - - 0;
#X text 29 53 Pads : 0 - 63 Ligne bas : 64 - 71 Ligne verticale : 82 - 89 Shift 98;
#X obj 191 376 s padNumber;
#X obj 279 376 s padVelocity;
#X obj 415 371 s bhNumber;
#X obj 805 44 s bhVelocity;
#X obj 428 165 moses 64;
#X obj 481 195 moses 72;
#X obj 532 370 s bvNumber;
#X obj 805 19 s bvVelocity;
#X obj 191 325 spigot;
#X obj 497 133 s Velocity;
#X obj 288 271 r Velocity;
#X obj 415 323 spigot;
#X obj 454 300 r Velocity;
#X obj 532 325 spigot;
#X obj 571 299 r Velocity;
#X obj 975 173 r padNumber;
#X obj 1062 173 r bhNumber;
#X obj 1141 173 r bvNumber;
#X obj 1221 173 r bShift;
#X floatatom 975 239 5 0 0 0 - - - 0;
#X floatatom 1065 237 5 0 0 0 - - - 0;
#X floatatom 1147 233 5 0 0 0 - - - 0;
#X floatatom 1226 230 5 0 0 0 - - - 0;
#X obj 719 329 spigot;
#X obj 758 306 r Velocity;
#X obj 719 374 s bShift;
#X obj 634 251 moses 98;
#X obj 555 220 moses 90;
#X obj 301 330 spigot;
#X obj 970 294 r padVelocity;
#X floatatom 971 333 5 0 0 0 - - - 0;
#X floatatom 332 427 5 0 0 0 - - - 0;
#X connect 0 0 1 0;
#X connect 0 0 9 0;
#X connect 0 1 2 0;
#X connect 0 1 14 0;
#X connect 0 2 3 0;
#X connect 9 0 13 0;
#X connect 9 0 33 1;
#X connect 9 1 10 0;
#X connect 10 0 16 0;
#X connect 10 1 32 0;
#X connect 13 0 5 0;
#X connect 15 0 13 1;
#X connect 15 0 33 0;
#X connect 16 0 7 0;
#X connect 17 0 16 1;
#X connect 18 0 11 0;
#X connect 19 0 18 1;
#X connect 20 0 24 0;
#X connect 21 0 25 0;
#X connect 22 0 26 0;
#X connect 23 0 27 0;
#X connect 28 0 30 0;
#X connect 29 0 28 1;
#X connect 31 1 28 0;
#X connect 32 0 18 0;
#X connect 32 1 31 0;
#X connect 33 0 6 0;
#X connect 33 0 36 0;
#X connect 34 0 35 0;
