#N canvas 127 80 1264 792 12;
#N canvas 92 25 1117 616 dispachMidi 0;
#X obj 478 59 notein;
#X obj 185 454 s padNumber;
#X obj 415 376 s bhNumber;
#X obj 428 165 moses 64;
#X obj 481 216 moses 72;
#X obj 667 377 s bvNumber;
#X obj 195 328 spigot;
#X obj 497 133 s Velocity;
#X obj 264 295 r Velocity;
#X obj 415 323 spigot;
#X obj 667 328 spigot;
#X obj 881 332 spigot;
#X obj 919 302 r Velocity;
#X obj 828 272 moses 98;
#X obj 667 246 moses 90;
#X text 198 494 Filter Notes < 64;
#X text 431 418 Filter Notes < 72;
#X text 667 416 Filter Notes < 90;
#X text 914 411 Filter Notes > 97;
#X obj 913 376 s bShiftNumber;
#X floatatom 303 205 5 0 0 0 - - - 0;
#X floatatom 95 430 5 0 0 0 - - - 0;
#X obj 598 109 bng 19 250 50 0 empty empty empty 0 -10 0 12 #fcfcfc #000000 #000000;
#X text 412 563 Envoyer la vélocité ? Est-ce nécessaire ? Chaque note envoi un bang !;
#X obj 210 406 bng 19 250 50 0 empty empty empty 0 -10 0 12 #fcfcfc #000000 #000000;
#X obj 455 293 r Velocity;
#X obj 706 299 r Velocity;
#X obj 645 442 bng 19 250 50 0 empty empty empty 0 -10 0 12 #fcfcfc #000000 #000000;
#X floatatom 589 390 5 0 0 0 - - - 0;
#X text 34 168 Shift 98;
#X text 34 97 Pads : 0 - 63;
#X text 32 141 Ligne verticale : 82 - 89;
#X text 27 117 Ligne bas : 64 - 71;
#X obj 577 229 moses 82;
#X floatatom 605 153 5 0 0 0 - - - 0;
#X connect 0 0 3 0;
#X connect 0 0 20 0;
#X connect 0 1 7 0;
#X connect 0 1 22 0;
#X connect 0 1 34 0;
#X connect 3 0 6 0;
#X connect 3 1 4 0;
#X connect 4 0 9 0;
#X connect 4 1 33 0;
#X connect 6 0 1 0;
#X connect 6 0 21 0;
#X connect 6 0 24 0;
#X connect 8 0 6 1;
#X connect 9 0 2 0;
#X connect 10 0 5 0;
#X connect 10 0 27 0;
#X connect 10 0 28 0;
#X connect 11 0 19 0;
#X connect 12 0 11 1;
#X connect 13 1 11 0;
#X connect 14 0 10 0;
#X connect 14 1 13 0;
#X connect 25 0 9 1;
#X connect 26 0 10 1;
#X connect 33 1 14 0;
#X restore 70 185 pd dispachMidi;
#N canvas 64 25 1121 566 loadTracks 0;
#X obj 841 417 tabread trackData;
#X obj 808 476 noteout;
#X obj 784 393 pipe 1;
#X msg 875 448 1;
#X text 34 36 Read the dateTrack table to set the leds with the correct pattern., f 27;
#X obj 598 133 select 82 83 84 85 86 87 88 89;
#X msg 857 227 0;
#X msg 805 228 64;
#X msg 744 228 128;
#X msg 690 229 192;
#X obj 889 367 +;
#X text 837 68 the "launch scene buttons" select the tracks to load. From bottom to top, f 24;
#X obj 784 333 counter;
#X msg 917 302 64;
#X obj 179 276 + 82;
#X floatatom 119 312 5 0 0 0 - - - 0;
#X msg 409 159 8;
#X msg 509 232 82;
#X msg 543 232 84;
#X msg 577 230 86;
#X obj 519 489 noteout;
#X msg 591 309 83;
#X msg 625 308 85;
#X msg 612 230 88;
#X msg 661 309 87;
#X msg 694 309 89;
#X obj 354 142 bng 19 250 50 0 empty empty empty 0 -10 0 12 #fcfcfc #000000 #000000;
#X obj 180 229 counter;
#X obj 446 34 r bvNumber;
#X floatatom 733 444 5 0 0 0 - - - 0;
#X floatatom 262 128 5 0 0 0 - - - 0;
#X text 55 373 1 - Turn Off all 8 leds;
#X text 458 527 2 - Turn on the 2 track leds;
#X obj 964 282 s firstAddress;
#X obj 453 283 bng 19 250 50 0 empty empty empty 0 -10 0 12 #fcfcfc #000000 #000000;
#X obj 671 400 bng 19 250 50 0 empty empty empty 0 -10 0 12 #fcfcfc #000000 #000000;
#X msg 589 447 1, f 4;
#X obj 200 333 noteout;
#X msg 297 261 1;
#X msg 250 260 0;
#X text 804 517 Load the tracks;
#X obj 539 92 pipe 10;
#X obj 473 355 pipe 50;
#X obj 557 412 pipe 60;
#X obj 1026 180 loadbang;
#X obj 352 224 loadbang;
#X connect 0 0 1 1;
#X connect 2 0 1 0;
#X connect 2 0 29 0;
#X connect 3 0 1 2;
#X connect 5 0 9 0;
#X connect 5 0 17 0;
#X connect 5 1 9 0;
#X connect 5 1 17 0;
#X connect 5 2 8 0;
#X connect 5 2 18 0;
#X connect 5 3 8 0;
#X connect 5 3 18 0;
#X connect 5 4 7 0;
#X connect 5 4 19 0;
#X connect 5 5 7 0;
#X connect 5 5 19 0;
#X connect 5 6 6 0;
#X connect 5 6 23 0;
#X connect 5 7 6 0;
#X connect 5 7 23 0;
#X connect 6 0 10 1;
#X connect 6 0 13 0;
#X connect 6 0 12 0;
#X connect 6 0 33 0;
#X connect 7 0 10 1;
#X connect 7 0 13 0;
#X connect 7 0 12 0;
#X connect 7 0 33 0;
#X connect 8 0 10 1;
#X connect 8 0 13 0;
#X connect 8 0 12 0;
#X connect 8 0 33 0;
#X connect 9 0 10 1;
#X connect 9 0 13 0;
#X connect 9 0 12 0;
#X connect 9 0 33 0;
#X connect 10 0 0 0;
#X connect 12 0 10 0;
#X connect 12 0 2 0;
#X connect 13 0 12 1;
#X connect 14 0 15 0;
#X connect 14 0 37 0;
#X connect 16 0 27 1;
#X connect 17 0 21 0;
#X connect 17 0 34 0;
#X connect 17 0 42 0;
#X connect 18 0 22 0;
#X connect 18 0 42 0;
#X connect 19 0 24 0;
#X connect 19 0 42 0;
#X connect 21 0 35 0;
#X connect 21 0 43 0;
#X connect 22 0 43 0;
#X connect 23 0 25 0;
#X connect 23 0 34 0;
#X connect 23 0 42 0;
#X connect 24 0 43 0;
#X connect 25 0 35 0;
#X connect 25 0 43 0;
#X connect 27 0 14 0;
#X connect 28 0 26 0;
#X connect 28 0 16 0;
#X connect 28 0 30 0;
#X connect 28 0 27 0;
#X connect 28 0 41 0;
#X connect 36 0 20 2;
#X connect 36 0 20 1;
#X connect 38 0 37 2;
#X connect 39 0 37 1;
#X connect 41 0 5 0;
#X connect 42 0 20 0;
#X connect 43 0 20 0;
#X connect 44 0 6 0;
#X connect 44 0 3 0;
#X connect 44 0 36 0;
#X connect 45 0 39 0;
#X connect 45 0 38 0;
#X restore 69 96 pd loadTracks;
#N canvas 42 49 1585 973 playSequencer 1;
#X floatatom 311 90 5 0 0 0 - - - 0;
#X msg 486 127 tempo \$1 permin;
#X obj 380 48 tgl 19 0 empty empty empty 0 -10 0 12 #fcfcfc #000000 #000000 0 1;
#X msg 372 215 0;
#X obj 716 396 noteout;
#X obj 599 336 + 32;
#X obj 290 265 * 1000;
#X msg 742 275 3;
#X obj 289 225 /;
#X msg 254 172 60;
#X obj 619 28 loadbang;
#N canvas 817 39 450 278 (subpatch) 0;
#X array PadOrder 32 float 3;
#A 0 24 25 26 27 28 29 30 31 16 17 18 19 20 21 22 23 8 9 10 11 12 13 14 15 0 1 2 3 4 5 6 7;
#X coords 0 278 1 277 200 140 0;
#X restore 776 74 graph;
#X obj 865 270 tabread PadOrder;
#X obj 471 184 int 0;
#X obj 537 204 + 1;
#X obj 424 233 sel 32;
#X obj 324 185 * 4;
#X obj 396 145 * 4;
#X text 764 45 PadOrder;
#X obj 240 492 tabread trackData;
#X floatatom 247 525 5 0 0 0 - - - 0;
#X obj 436 493 tabread trackData;
#X floatatom 468 528 5 0 0 0 - - - 0;
#X obj 600 394 noteout;
#X obj 292 294 - 30;
#X obj 169 580 noteout;
#X obj 425 592 noteout;
#X obj 169 490 pipe 5;
#X obj 397 527 pipe 5;
#X obj 378 317 tabread PadOrder;
#X obj 483 270 - 1;
#X obj 385 362 + 32;
#X obj 120 332 r firstAddress;
#X obj 301 423 +;
#X obj 417 424 +;
#X floatatom 465 454 5 0 0 0 - - - 0;
#X floatatom 457 406 5 0 0 0 - - - 0;
#X floatatom 81 374 5 0 0 0 - - - 0;
#X text 873 188 Dupliquer cette partie pour les 8 pistes !;
#X obj 1068 628 tabread trackData;
#X obj 1206 626 tabread trackData;
#X obj 936 625 tabread trackData;
#X obj 1335 629 tabread trackData;
#X obj 1468 628 tabread trackData;
#X obj 1594 628 tabread trackData;
#X obj 1726 627 tabread trackData;
#X obj 804 629 tabread trackData;
#X obj 935 601 + 32;
#X obj 1069 600 + 64;
#X obj 1204 600 + 96;
#X obj 1335 595 + 128;
#X obj 1466 595 + 160;
#X obj 1593 596 + 192;
#X obj 1727 596 + 224;
#X floatatom 745 531 5 0 0 0 - - - 0;
#X text 600 420 Display the red trackers;
#X msg 1342 741 45;
#X obj 472 155 metro 1 480 permin;
#X obj 395 748 midiout;
#X text 409 651 MSB 0 xx LSB 32 xx PC xx;
#X msg 397 677 176 \, 0 \, 86 \, 176 \, 32 \, 64 \, 192 \, 0;
#X msg 1218 732 32;
#N canvas 129 60 423 422 playSound 1;
#X obj 192 186 makenote;
#X obj 264 99 loadbang;
#X msg 210 141 127, f 5;
#X msg 261 143 1000;
#X obj 222 233 noteout;
#X msg 306 145 17;
#X floatatom 135 163 5 0 0 0 - - - 0;
#X obj 143 99 spigot;
#X obj 68 23 inlet noteNumber;
#X obj 204 24 inlet play;
#X connect 0 0 4 0;
#X connect 0 1 4 1;
#X connect 1 0 2 0;
#X connect 1 0 3 0;
#X connect 1 0 5 0;
#X connect 2 0 0 1;
#X connect 3 0 0 2;
#X connect 5 0 4 2;
#X connect 7 0 6 0;
#X connect 7 0 0 0;
#X connect 8 0 7 0;
#X connect 9 0 7 1;
#X restore 803 797 pd playSound;
#X msg 803 726 50;
#N canvas 129 60 423 422 playSound 1;
#X obj 192 186 makenote;
#X obj 264 99 loadbang;
#X msg 210 141 127, f 5;
#X msg 261 143 1000;
#X obj 222 233 noteout;
#X msg 306 145 17;
#X floatatom 135 163 5 0 0 0 - - - 0;
#X obj 143 99 spigot;
#X obj 68 23 inlet noteNumber;
#X obj 204 24 inlet play;
#X connect 0 0 4 0;
#X connect 0 1 4 1;
#X connect 1 0 2 0;
#X connect 1 0 3 0;
#X connect 1 0 5 0;
#X connect 2 0 0 1;
#X connect 3 0 0 2;
#X connect 5 0 4 2;
#X connect 7 0 6 0;
#X connect 7 0 0 0;
#X connect 8 0 7 0;
#X connect 9 0 7 1;
#X restore 1216 796 pd playSound;
#N canvas 129 60 423 422 playSound 1;
#X obj 192 186 makenote;
#X obj 264 99 loadbang;
#X msg 210 141 127, f 5;
#X msg 261 143 1000;
#X obj 222 233 noteout;
#X msg 306 145 17;
#X floatatom 135 163 5 0 0 0 - - - 0;
#X obj 143 99 spigot;
#X obj 68 23 inlet noteNumber;
#X obj 204 24 inlet play;
#X connect 0 0 4 0;
#X connect 0 1 4 1;
#X connect 1 0 2 0;
#X connect 1 0 3 0;
#X connect 1 0 5 0;
#X connect 2 0 0 1;
#X connect 3 0 0 2;
#X connect 5 0 4 2;
#X connect 7 0 6 0;
#X connect 7 0 0 0;
#X connect 8 0 7 0;
#X connect 9 0 7 1;
#X restore 1340 794 pd playSound;
#N canvas 129 60 423 422 playSound 1;
#X obj 192 186 makenote;
#X obj 264 99 loadbang;
#X msg 210 141 127, f 5;
#X msg 261 143 1000;
#X obj 222 233 noteout;
#X msg 306 145 17;
#X floatatom 135 163 5 0 0 0 - - - 0;
#X obj 143 99 spigot;
#X obj 68 23 inlet noteNumber;
#X obj 204 24 inlet play;
#X connect 0 0 4 0;
#X connect 0 1 4 1;
#X connect 1 0 2 0;
#X connect 1 0 3 0;
#X connect 1 0 5 0;
#X connect 2 0 0 1;
#X connect 3 0 0 2;
#X connect 5 0 4 2;
#X connect 7 0 6 0;
#X connect 7 0 0 0;
#X connect 8 0 7 0;
#X connect 9 0 7 1;
#X restore 940 797 pd playSound;
#X msg 938 722 38;
#N canvas 129 60 423 422 playSound 1;
#X obj 192 186 makenote;
#X obj 264 99 loadbang;
#X msg 210 141 127, f 5;
#X msg 261 143 1000;
#X obj 222 233 noteout;
#X msg 306 145 17;
#X floatatom 135 163 5 0 0 0 - - - 0;
#X obj 143 99 spigot;
#X obj 68 23 inlet noteNumber;
#X obj 204 24 inlet play;
#X connect 0 0 4 0;
#X connect 0 1 4 1;
#X connect 1 0 2 0;
#X connect 1 0 3 0;
#X connect 1 0 5 0;
#X connect 2 0 0 1;
#X connect 3 0 0 2;
#X connect 5 0 4 2;
#X connect 7 0 6 0;
#X connect 7 0 0 0;
#X connect 8 0 7 0;
#X connect 9 0 7 1;
#X restore 1070 800 pd playSound;
#X msg 1065 718 35;
#N canvas 129 60 423 422 playSound 1;
#X obj 192 186 makenote;
#X obj 264 99 loadbang;
#X msg 210 141 127, f 5;
#X msg 261 143 1000;
#X obj 222 233 noteout;
#X msg 306 145 17;
#X floatatom 135 163 5 0 0 0 - - - 0;
#X obj 143 99 spigot;
#X obj 68 23 inlet noteNumber;
#X obj 204 24 inlet play;
#X connect 0 0 4 0;
#X connect 0 1 4 1;
#X connect 1 0 2 0;
#X connect 1 0 3 0;
#X connect 1 0 5 0;
#X connect 2 0 0 1;
#X connect 3 0 0 2;
#X connect 5 0 4 2;
#X connect 7 0 6 0;
#X connect 7 0 0 0;
#X connect 8 0 7 0;
#X connect 9 0 7 1;
#X restore 1469 795 pd playSound;
#N canvas 129 60 423 422 playSound 1;
#X obj 192 186 makenote;
#X obj 264 99 loadbang;
#X msg 210 141 127, f 5;
#X msg 261 143 1000;
#X obj 222 233 noteout;
#X msg 306 145 17;
#X floatatom 135 163 5 0 0 0 - - - 0;
#X obj 143 99 spigot;
#X obj 68 23 inlet noteNumber;
#X obj 204 24 inlet play;
#X connect 0 0 4 0;
#X connect 0 1 4 1;
#X connect 1 0 2 0;
#X connect 1 0 3 0;
#X connect 1 0 5 0;
#X connect 2 0 0 1;
#X connect 3 0 0 2;
#X connect 5 0 4 2;
#X connect 7 0 6 0;
#X connect 7 0 0 0;
#X connect 8 0 7 0;
#X connect 9 0 7 1;
#X restore 1596 792 pd playSound;
#N canvas 129 60 423 422 playSound 1;
#X obj 192 186 makenote;
#X obj 264 99 loadbang;
#X msg 210 141 127, f 5;
#X msg 261 143 1000;
#X obj 222 233 noteout;
#X msg 306 145 17;
#X floatatom 135 163 5 0 0 0 - - - 0;
#X obj 143 99 spigot;
#X obj 68 23 inlet noteNumber;
#X obj 204 24 inlet play;
#X connect 0 0 4 0;
#X connect 0 1 4 1;
#X connect 1 0 2 0;
#X connect 1 0 3 0;
#X connect 1 0 5 0;
#X connect 2 0 0 1;
#X connect 3 0 0 2;
#X connect 5 0 4 2;
#X connect 7 0 6 0;
#X connect 7 0 0 0;
#X connect 8 0 7 0;
#X connect 9 0 7 1;
#X restore 1728 791 pd playSound;
#X msg 1730 738 53;
#X msg 1598 739 60;
#X msg 1471 742 71;
#X connect 0 0 9 0;
#X connect 0 0 16 0;
#X connect 0 0 17 0;
#X connect 1 0 57 0;
#X connect 2 0 57 0;
#X connect 3 0 13 0;
#X connect 5 0 23 0;
#X connect 6 0 24 0;
#X connect 7 0 4 1;
#X connect 7 0 23 1;
#X connect 8 0 6 0;
#X connect 9 0 8 0;
#X connect 10 0 9 0;
#X connect 10 0 7 0;
#X connect 12 0 5 0;
#X connect 12 0 4 0;
#X connect 12 0 47 0;
#X connect 12 0 48 0;
#X connect 12 0 49 0;
#X connect 12 0 50 0;
#X connect 12 0 51 0;
#X connect 12 0 52 0;
#X connect 12 0 53 0;
#X connect 12 0 46 0;
#X connect 12 0 54 0;
#X connect 13 0 14 0;
#X connect 13 0 15 0;
#X connect 13 0 30 0;
#X connect 13 0 12 0;
#X connect 14 0 13 1;
#X connect 15 0 3 0;
#X connect 16 0 8 1;
#X connect 17 0 1 0;
#X connect 19 0 20 0;
#X connect 20 0 25 1;
#X connect 21 0 22 0;
#X connect 22 0 26 1;
#X connect 27 0 25 0;
#X connect 28 0 26 0;
#X connect 29 0 31 0;
#X connect 29 0 27 0;
#X connect 29 0 33 0;
#X connect 30 0 29 0;
#X connect 31 0 28 0;
#X connect 31 0 36 0;
#X connect 31 0 34 0;
#X connect 32 0 37 0;
#X connect 32 0 33 1;
#X connect 32 0 34 1;
#X connect 33 0 19 0;
#X connect 34 0 21 0;
#X connect 34 0 35 0;
#X connect 39 0 69 0;
#X connect 39 0 68 1;
#X connect 40 0 61 0;
#X connect 40 0 64 1;
#X connect 41 0 67 0;
#X connect 41 0 66 1;
#X connect 42 0 56 0;
#X connect 42 0 65 1;
#X connect 43 0 75 0;
#X connect 43 0 70 1;
#X connect 44 0 74 0;
#X connect 44 0 71 1;
#X connect 45 0 73 0;
#X connect 45 0 72 1;
#X connect 46 0 62 1;
#X connect 46 0 63 0;
#X connect 47 0 41 0;
#X connect 48 0 39 0;
#X connect 49 0 40 0;
#X connect 50 0 42 0;
#X connect 51 0 43 0;
#X connect 52 0 44 0;
#X connect 53 0 45 0;
#X connect 56 0 65 0;
#X connect 57 0 13 0;
#X connect 60 0 58 0;
#X connect 61 0 64 0;
#X connect 63 0 62 0;
#X connect 67 0 66 0;
#X connect 69 0 68 0;
#X connect 73 0 72 0;
#X connect 74 0 71 0;
#X connect 75 0 70 0;
#X restore 265 68 pd playSequencer;
#N canvas 102 25 1338 847 setNotes 1;
#X obj 207 642 noteout;
#X msg 321 573 1;
#X obj 194 497 pipe 10;
#X obj 400 133 r firstAddress;
#X obj 222 132 r padNumber, f 13;
#X text 121 132 0 - 63;
#X text 16 250 Read table data for the pad;
#X obj 248 255 tabread trackData;
#X obj 383 198 +;
#X text 429 197 Data address: padNumber + firstAdress;
#X obj 333 451 tabwrite trackData;
#X text 425 302 Invert result;
#X obj 249 307 moses 1;
#X msg 249 344 1;
#X msg 295 344 0;
#X text 318 540 Led color : green 1 \,;
#X obj 275 546 * 1;
#X obj 336 420 pipe 2;
#N canvas 0 22 450 278 (subpatch) 0;
#X array trackData 256 float 3;
#A 0 0 0 0 0 0 0 0 0 0 0 0 0 0 0 0 0 0 0 0 0 0 0 0 0 0 0 0 0 0 0 0 0 0 0 0 0 0 0 0 0 0 0 0 0 0 0 0 0 0 0 0 0 0 0 0 0 0 0 0 0 0 0 0 0 0 0 0 0 0 0 0 0 0 0 0 0 0 0 0 0 0 1 1 0 0 0 0 0 0 0 1 0 1 0 1 0 0 0 0 0 1 0 1 0 0 0 0 0 0 0 1 0 0 0 0 0 0 0 0 0 1 1 1 1 0 0 0 0 1 1 0 0 0 0 0 0 0 0 0 0 0 0 0 0 0 0 0 0 0 0 0 1 0 0 0 1 1 1 0 1 0 0 0 0 0 0 0 1 0 1 0 0 0 0 0 1 0 0 0 0 0 0 0 0 1 0 0 0 0 0 0 0 0 0 0 0 0 0 0 0 0 0 1 0 0 0 0 0 0 0 0 0 1 1 0 1 1 1 1 1 0 1 1 0 0 0 0 0 0 1 0 0 0 0 1 0 0 0 0 0 0 0 0 0 0 0 0 0 1 1 1 1 1 1 1 0;
#X coords 0 1 256 -1 444 126 1;
#X restore 784 473 graph;
#X connect 1 0 0 2;
#X connect 2 0 0 0;
#X connect 3 0 8 1;
#X connect 4 0 2 0;
#X connect 4 0 8 0;
#X connect 7 0 12 0;
#X connect 8 0 7 0;
#X connect 8 0 10 1;
#X connect 12 0 13 0;
#X connect 12 1 14 0;
#X connect 13 0 16 0;
#X connect 13 0 17 0;
#X connect 14 0 16 0;
#X connect 14 0 17 0;
#X connect 16 0 0 1;
#X connect 17 0 10 0;
#X restore 69 121 pd setNotes;
