#N canvas 194 23 1168 775 12;
#X obj 342 68 loadbang;
#X msg 342 112 375;
#X floatatom 342 156 5 0 0 0 - - - 0;
#X obj 308 189 metro;
#X obj 308 145 tgl 19 0 empty empty empty 0 -10 0 12 #fcfcfc #000000 #000000 0 1;
#X obj 306 234 bng 19 250 50 0 empty empty empty 0 -10 0 12 #fcfcfc #000000 #000000;
#X obj 172 145 loadbang;
#X obj 258 231 bng 19 250 50 0 empty empty empty 0 -10 0 12 #fcfcfc #000000 #000000;
#X obj 308 277 int 1;
#X obj 374 318 + 1;
#X floatatom 308 318 5 0 0 0 - - - 0;
#X obj 308 349 % 8;
#X obj 308 381 + 1;
#X floatatom 307 450 5 0 0 0 - - - 0;
#X msg 257 255 -1;
#X obj 315 538 sel 1;
#X obj 315 569 bng 19 250 50 0 empty empty empty 0 -10 0 12 #fcfcfc #000000 #000000;
#X obj 365 538 sel 2;
#X obj 414 538 sel 3;
#X obj 464 538 sel 4;
#X obj 513 538 sel 5;
#X obj 569 538 sel 6;
#X obj 617 538 sel 7;
#X obj 668 538 sel 8;
#X obj 366 570 bng 19 250 50 0 empty empty empty 0 -10 0 12 #fcfcfc #000000 #000000;
#X obj 414 570 bng 19 250 50 0 empty empty empty 0 -10 0 12 #fcfcfc #000000 #000000;
#X obj 464 569 bng 19 250 50 0 empty empty empty 0 -10 0 12 #fcfcfc #000000 #000000;
#X obj 512 571 bng 19 250 50 0 empty empty empty 0 -10 0 12 #fcfcfc #000000 #000000;
#X obj 568 573 bng 19 250 50 0 empty empty empty 0 -10 0 12 #fcfcfc #000000 #000000;
#X obj 617 574 bng 19 250 50 0 empty empty empty 0 -10 0 12 #fcfcfc #000000 #000000;
#X obj 669 576 bng 19 250 50 0 empty empty empty 0 -10 0 12 #fcfcfc #000000 #000000;
#X obj 314 612 s One;
#X obj 121 533 hradio 19 1 0 8 empty empty empty 0 -10 0 12 #fcfcfc #000000 #000000 0;
#X obj 122 590 tabread array1;
#X floatatom 119 648 5 0 0 0 - - - 0;
#N canvas 534 96 851 634 setnote 0;
#X obj 100 10 notein;
#X floatatom 64 56 5 0 0 0 - - - 0;
#X floatatom 125 56 5 0 0 0 - - - 0;
#X floatatom 179 59 5 0 0 0 - - - 0;
#X floatatom 216 344 5 0 0 0 - - - 0;
#X obj 216 287 &&;
#X obj 216 315 == 0;
#X obj 287 170 == 127;
#X floatatom 287 199 5 0 0 0 - - - 0;
#X obj 73 487 noteout;
#X msg 211 447 1;
#X obj 208 207 -;
#X floatatom 347 137 5 0 0 0 - - - 0;
#X obj 102 246 tabread trackData;
#X obj 261 404 tabwrite trackData;
#X obj 346 46 inlet debut;
#X floatatom 247 124 5 0 0 0 - - - 0;
#X obj 184 137 spigot;
#X floatatom 113 190 5 0 0 0 - - - 0;
#X obj 39 187 spigot;
#X obj 192 407 * 5;
#X obj 208 93 < 64;
#N canvas 0 22 450 278 (subpatch) 0;
#X array trackData 256 float 3;
#A 0 1 0 0 0 0 0 0 1 1 1 0 0 1 0 0 0 1 1 0 0 0 1 1 1 1 1 0 1 1 0 1 0 1 1 0 1 1 1 0 1 0 1 0 1 1 0 1 0 1 0 0 1 1 1 1 1 1 1 0 0 0 1 1 1 0 0 0 0 0 0 0 0 0 0 0 0 0 0 0 0 0 0 0 0 0 0 0 0 0 0 0 0 0 0 0 0 0 0 0 0 0 0 0 0 0 0 0 0 0 0 0 0 0 0 0 0 0 0 0 0 0 0 0 0 0 0 0 0 0 0 0 0 0 0 0 0 0 0 0 0 0 0 0 0 0 0 0 0 0 0 0 0 0 0 0 0 0 0 0 0 0 0 0 0 0 0 0 0 0 0 0 0 0 0 0 0 0 0 0 0 0 0 0 0 0 0 0 0 0 0 0 0 0 0 0 0 0 0 0 0 0 0 0 0 0 0 0 0 0 0 0 0 0 0 0 0 0 0 0 0 0 0 0 0 0 0 0 0 0 0 0 0 0 0 0 0 0 0 0 0 0 0 0 0 0 0 0 0 0 0 0 0 0 0 0 0;
#X coords 0 1 256 -1 273 138 1;
#X restore 474 196 graph;
#X obj 216 372 pipe 2;
#X floatatom 103 435 5 0 0 0 - - - 0;
#X floatatom 99 293 5 0 0 0 - - - 0;
#X obj 139 97 pipe 5;
#X obj 40 135 pipe 10;
#X text 410 100 Ca sert à rien. La note suffit. Pas besoin de la vélocité;
#X connect 0 0 1 0;
#X connect 0 1 2 0;
#X connect 0 2 3 0;
#X connect 1 0 11 0;
#X connect 1 0 21 0;
#X connect 1 0 27 0;
#X connect 2 0 26 0;
#X connect 4 0 23 0;
#X connect 5 0 6 0;
#X connect 5 0 6 1;
#X connect 6 0 4 0;
#X connect 7 0 8 0;
#X connect 8 0 5 0;
#X connect 10 0 9 2;
#X connect 11 0 13 0;
#X connect 11 0 14 1;
#X connect 13 0 25 0;
#X connect 13 0 5 1;
#X connect 15 0 11 1;
#X connect 15 0 12 0;
#X connect 17 0 7 0;
#X connect 17 0 18 0;
#X connect 19 0 9 0;
#X connect 20 0 9 1;
#X connect 20 0 24 0;
#X connect 21 0 16 0;
#X connect 21 0 17 1;
#X connect 21 0 19 1;
#X connect 23 0 14 0;
#X connect 23 0 20 0;
#X connect 26 0 17 0;
#X connect 27 0 19 0;
#X restore 771 139 pd setnote;
#X msg 771 106 0;
#X obj 1105 645 noteout;
#X msg 1167 602 1;
#X floatatom 1258 534 5 0 0 0 - - - 0;
#X floatatom 1260 563 5 0 0 0 - - - 0;
#X msg 1036 592 10;
#X obj 1150 247 tgl 19 0 empty empty empty 17 7 0 10 #dfdfdf #000000 #000000 0 1;
#X obj 1157 379 line;
#X obj 1156 419 int;
#X msg 1120 597 1, f 2;
#X msg 1159 325 0 \, 256 10000;
#X obj 342 92;
#X obj 258 186 sel 0;
#X obj 1153 487 tabread trackData;
#N canvas 450 155 1031 566 loadTracks 0;
#X obj 841 417 tabread trackData;
#X obj 808 476 noteout;
#X obj 784 393 pipe 1;
#X msg 875 448 1;
#X text 34 36 Read the dateTrack table to set the leds with the correct pattern., f 27;
#X obj 512 45 notein;
#X obj 598 133 select 82 83 84 85 86 87 88 89;
#X msg 857 227 0;
#X msg 805 228 64;
#X msg 744 228 128;
#X msg 690 229 192;
#X obj 889 367 +;
#X text 837 68 the "launch scene buttons" select the tracks to load. From bottom to top, f 24;
#X obj 179 326 noteout;
#X obj 784 333 counter;
#X msg 917 302 64;
#X obj 179 225 counter;
#X obj 179 276 + 82;
#X msg 265 292 1;
#X msg 230 279 0;
#X floatatom 119 312 5 0 0 0 - - - 0;
#X msg 498 154 8;
#X msg 509 232 82;
#X msg 543 232 84;
#X msg 577 230 86;
#X obj 453 500 noteout;
#X msg 591 309 83;
#X obj 471 417 pipe 5;
#X obj 399 150 select 127;
#X msg 625 308 85;
#X msg 612 230 88;
#X msg 661 309 87;
#X msg 694 309 89;
#X obj 144 426 s;
#X connect 0 0 1 1;
#X connect 2 0 1 0;
#X connect 3 0 1 2;
#X connect 5 0 6 0;
#X connect 5 0 21 0;
#X connect 5 1 28 0;
#X connect 6 0 10 0;
#X connect 6 0 22 0;
#X connect 6 1 10 0;
#X connect 6 1 22 0;
#X connect 6 2 9 0;
#X connect 6 2 23 0;
#X connect 6 3 9 0;
#X connect 6 3 23 0;
#X connect 6 4 8 0;
#X connect 6 4 24 0;
#X connect 6 5 8 0;
#X connect 6 5 24 0;
#X connect 6 6 7 0;
#X connect 6 6 30 0;
#X connect 6 7 7 0;
#X connect 6 7 30 0;
#X connect 7 0 11 1;
#X connect 7 0 15 0;
#X connect 7 0 14 0;
#X connect 8 0 11 1;
#X connect 8 0 15 0;
#X connect 8 0 14 0;
#X connect 9 0 11 1;
#X connect 9 0 15 0;
#X connect 9 0 14 0;
#X connect 10 0 11 1;
#X connect 10 0 15 0;
#X connect 10 0 14 0;
#X connect 11 0 0 0;
#X connect 14 0 11 0;
#X connect 14 0 2 0;
#X connect 15 0 14 1;
#X connect 16 0 17 0;
#X connect 17 0 13 0;
#X connect 17 0 20 0;
#X connect 18 0 13 2;
#X connect 18 0 25 1;
#X connect 18 0 25 2;
#X connect 19 0 13 1;
#X connect 21 0 16 1;
#X connect 22 0 26 0;
#X connect 22 0 27 0;
#X connect 23 0 27 0;
#X connect 23 0 29 0;
#X connect 24 0 31 0;
#X connect 24 0 27 0;
#X connect 26 0 27 0;
#X connect 27 0 25 0;
#X connect 28 0 16 0;
#X connect 29 0 27 0;
#X connect 30 0 32 0;
#X connect 30 0 27 0;
#X connect 31 0 27 0;
#X connect 32 0 27 0;
#X restore 994 126 pd loadTracks;
#X connect 0 0 1 0;
#X connect 0 0 47 0;
#X connect 1 0 2 0;
#X connect 2 0 3 1;
#X connect 3 0 5 0;
#X connect 4 0 3 0;
#X connect 4 0 48 0;
#X connect 5 0 8 0;
#X connect 6 0 7 0;
#X connect 7 0 14 0;
#X connect 8 0 9 0;
#X connect 8 0 10 0;
#X connect 9 0 8 1;
#X connect 10 0 11 0;
#X connect 11 0 12 0;
#X connect 12 0 13 0;
#X connect 13 0 15 0;
#X connect 13 0 17 0;
#X connect 13 0 18 0;
#X connect 13 0 19 0;
#X connect 13 0 20 0;
#X connect 13 0 21 0;
#X connect 13 0 22 0;
#X connect 13 0 23 0;
#X connect 13 0 32 0;
#X connect 14 0 8 0;
#X connect 15 0 16 0;
#X connect 16 0 31 0;
#X connect 17 0 24 0;
#X connect 18 0 25 0;
#X connect 19 0 26 0;
#X connect 20 0 27 0;
#X connect 21 0 28 0;
#X connect 22 0 29 0;
#X connect 23 0 30 0;
#X connect 32 0 33 0;
#X connect 33 0 34 0;
#X connect 36 0 35 0;
#X connect 38 0 37 2;
#X connect 41 0 37 0;
#X connect 42 0 46 0;
#X connect 43 0 44 0;
#X connect 44 0 39 0;
#X connect 44 0 37 0;
#X connect 44 0 49 0;
#X connect 45 0 37 1;
#X connect 46 0 43 0;
#X connect 48 0 7 0;
#X connect 49 0 37 1;
#X connect 49 0 40 0;
