#N canvas 1029 361 700 547 12;
#X obj 81 69 selectMidi;
#X obj 68 158 r padNumber;
#X obj 155 158 r bhNumber;
#X obj 234 158 r bvNumber;
#X floatatom 68 224 5 0 0 0 - - - 0;
#X floatatom 158 222 5 0 0 0 - - - 0;
#X floatatom 240 218 5 0 0 0 - - - 0;
#X floatatom 319 215 5 0 0 0 - - - 0;
#X obj 63 279 r padVelocity;
#X floatatom 64 318 5 0 0 0 - - - 0;
#X obj 172 276 r bShiftVelocity;
#X obj 314 158 r bShiftNumber;
#X floatatom 174 320 5 0 0 0 - - - 0;
#X connect 1 0 4 0;
#X connect 2 0 5 0;
#X connect 3 0 6 0;
#X connect 8 0 9 0;
#X connect 10 0 12 0;
#X connect 11 0 7 0;
